<svg width="16" height="16" viewBox="0 0 16 16" fill="none" xmlns="http://www.w3.org/2000/svg">
  <g clip-path="url(#clip0_2003_1348)">
    <path
      d="M14.6665 9.33337V6.66671C14.6665 4.15255 14.6665 2.89547 13.8854 2.11442C13.1044 1.33337 11.8473 1.33337 9.33317 1.33337H7.99984C5.48568 1.33337 4.2286 1.33337 3.44755 2.11442C2.6665 2.89547 2.6665 4.15255 2.6665 6.66671V9.33337C2.6665 11.8475 2.6665 13.1046 3.44755 13.8856C4.2286 14.6667 5.48568 14.6667 7.99984 14.6667H9.33317C11.8473 14.6667 13.1044 14.6667 13.8854 13.8856C14.6665 13.1046 14.6665 11.8475 14.6665 9.33337Z"
      stroke="#0F172B" />
    <path
      d="M7.8573 6.66667H10.143C10.8614 6.66667 11.2205 6.66667 11.4437 6.47141C11.6668 6.27614 11.6668 5.96187 11.6668 5.33333C11.6668 4.70479 11.6668 4.39053 11.4437 4.19526C11.2205 4 10.8614 4 10.143 4H7.8573C7.13896 4 6.77983 4 6.55666 4.19526C6.3335 4.39053 6.3335 4.70479 6.3335 5.33333C6.3335 5.96187 6.3335 6.27614 6.55666 6.47141C6.77983 6.66667 7.13896 6.66667 7.8573 6.66667Z"
      stroke="#0F172B" />
    <path d="M3.3335 4H1.3335M3.3335 8H1.3335M3.3335 12H1.3335" stroke="#0F172B" stroke-linecap="round"
      stroke-linejoin="round" />
  </g>
  <defs>
    <clipPath id="clip0_2003_1348">
      <rect width="16" height="16" fill="white" />
    </clipPath>
  </defs>
</svg>