<svg width="16" height="16" viewBox="0 0 16 16" fill="none" xmlns="http://www.w3.org/2000/svg">
  <path
    d="M4.6665 12V10.6666M7.99984 12V9.99996M11.3332 12V8.66663M1.6665 7.99996C1.6665 5.0144 1.6665 3.52162 2.594 2.59412C3.5215 1.66663 5.01428 1.66663 7.99984 1.66663C10.9854 1.66663 12.4782 1.66663 13.4057 2.59412C14.3332 3.52162 14.3332 5.0144 14.3332 7.99996C14.3332 10.9855 14.3332 12.4783 13.4057 13.4058C12.4782 14.3333 10.9854 14.3333 7.99984 14.3333C5.01428 14.3333 3.5215 14.3333 2.594 13.4058C1.6665 12.4783 1.6665 10.9855 1.6665 7.99996Z"
    stroke="#141B34" stroke-linecap="round" stroke-linejoin="round" />
  <path
    d="M3.99463 7.65749C5.43136 7.70536 8.68924 7.48849 10.5423 4.54751M9.32804 4.19219L10.5784 3.99095C10.7308 3.97155 10.9545 4.09186 11.0095 4.23528L11.3401 5.32757"
    stroke="#141B34" stroke-linecap="round" stroke-linejoin="round" />
</svg>