<svg width="16" height="16" viewBox="0 0 16 16" fill="none" xmlns="http://www.w3.org/2000/svg">
  <path
    d="M2.6665 11.9872V6.47173C2.6665 4.04948 2.6665 2.83836 3.44755 2.08587C4.2286 1.33337 5.48568 1.33337 7.99984 1.33337C10.514 1.33337 11.7711 1.33337 12.5521 2.08587C13.3332 2.83836 13.3332 4.04948 13.3332 6.47173V11.9872C13.3332 13.5245 13.3332 14.2931 12.818 14.5682C11.8202 15.101 9.94864 13.3235 9.05984 12.7883C8.54437 12.4779 8.28664 12.3227 7.99984 12.3227C7.71304 12.3227 7.4553 12.4779 6.93984 12.7883C6.05104 13.3235 4.17948 15.101 3.18174 14.5682C2.6665 14.2931 2.6665 13.5245 2.6665 11.9872Z"
    stroke="#0F172B" stroke-linecap="round" stroke-linejoin="round" />
</svg>