<svg width="15" height="15" viewBox="0 0 15 15" fill="none" xmlns="http://www.w3.org/2000/svg">
  <path
    d="M1 12.5556V4.2854C1 3.24262 1 2.72121 1.15816 2.3119C1.35535 1.80156 1.7214 1.39484 2.1807 1.17573C2.54909 1 3.01373 1 3.95686 1H4.27802C4.67132 1 5.04349 1.19785 5.29027 1.53812L6.47137 3.16667M6.47137 3.16667H10.1C11.0101 3.16667 11.4651 3.16667 11.8127 3.36346C12.1185 3.53657 12.3671 3.81278 12.5229 4.15251C12.7 4.53874 12.7 5.04435 12.7 6.05556V6.77778M6.47137 3.16667H4.25"
    stroke="black" stroke-linecap="round" stroke-linejoin="round" />
  <path
    d="M1.75271 10.0382L1.94668 9.50184C2.42369 8.18248 2.6622 7.52288 3.15956 7.15035C3.65692 6.77783 4.29912 6.77783 5.58352 6.77783H10.8227C12.5703 6.77783 13.444 6.77783 13.8324 7.41245C14.2208 8.04714 13.8963 8.94464 13.2473 10.7397L13.0533 11.276C12.5763 12.5954 12.3378 13.255 11.8404 13.6275C11.3431 14.0001 10.7009 14.0001 9.41646 14.0001H4.17728C2.42975 14.0001 1.55598 14.0001 1.16758 13.3654C0.779188 12.7307 1.10369 11.8332 1.75271 10.0382Z"
    stroke="black" stroke-linejoin="round" />
</svg>